# xmcd
#
# Track frame offsets: 
#        150
#        10275
#        28465
#        49165
#        69095
#        90520
#        106490
#        126240
#        152560
#        171650
#
# Disc length: 2591 seconds
#
# Revision: 0
# Processed by: cddbd v1.5.1PL0 Copyright (c) Steve Scherf et al.
# Submitted via: ExactAudioCopy v0.95a5
#
DISCID=830a1d0a
DTITLE=Melrose - Trio
DYEAR=1995
DGENRE=Rock and Roll
TTITLE0=Road Is The Light
TTITLE1=Carry On
TTITLE2=Barnyard Boogie Paradise
TTITLE3=Shove It!
TTITLE4=(Right There) Beside You
TTITLE5=Riff and Rhyme
TTITLE6=The Chief
TTITLE7=White Storm
TTITLE8=Feel Like Walking
TTITLE9=Earth Blues
EXTD=
EXTT0=
EXTT1=
EXTT2=
EXTT3=
EXTT4=
EXTT5=
EXTT6=
EXTT7=
EXTT8=
EXTT9=
PLAYORDER=
